# xmcd CD database file
#
# Track frame offsets:
#	150
#	25935
#	50726
#	75956
#	93399
#	113958
#	134116
#	156932
#	182498
#	203675
#
# Disc length: 3033 seconds
#
# Revision: 0
# Processed by: cddbd v1.5.2PL0 Copyright (c) Steve Scherf et al.
# Submitted via: CDex 1.70beta2
#
DISCID=810bd70a
DTITLE=Various Artist - asian chill 2
DYEAR=2006
DGENRE=New Age
TTITLE0=visions of zen
TTITLE1=the groove you liked
TTITLE2=treva cool
TTITLE3=along the river
TTITLE4=rebirth
TTITLE5=pure thoughts
TTITLE6=wave of dreams
TTITLE7=pure land
TTITLE8=kiss of life
TTITLE9=spiritual signs
EXTD=YEAR: 2006
EXTT0=
EXTT1=
EXTT2=
EXTT3=
EXTT4=
EXTT5=
EXTT6=
EXTT7=
EXTT8=
EXTT9=
PLAYORDER=
